#!OML:ASF F:\VICON\USERDATA\INSTALL\rory3\rory3.ASF
:FULLY-SPECIFIED
:DEGREES
408
root 0.0790685 17.0848 5.9945 9.72755 -0.195466 -9.52153
lowerback -8.96913 2.04232 8.83583
upperback -4.13688 1.95688 2.49736
thorax 0.903288 0.89907 -2.16403
lowerneck -15.5065 -3.42223 -6.89957
upperneck 26.1664 -4.46454 5.28741
head 11.3424 -2.06117 2.4711
rclavicle -3.91668e-015 2.68359e-015
rhumerus -33.9618 5.28213 -85.1436
rradius 35.5409
rwrist 1.38636
rhand -24.0076 -49.4716
rfingers 7.12502
rthumb 2.47004 -79.437
lclavicle -3.91668e-015 2.68359e-015
lhumerus -46.8472 -5.29687 86.0585
lradius 31.7394
lwrist 10.4447
lhand -33.2389 -19.5791
lfingers 7.12502
lthumb -6.44487 10.3029
rfemur -15.0417 6.35595 36.5008
rtibia 29.332
rfoot -18.7194 -8.34416
rtoes 6.72012
lfemur -43.3194 0.615047 -10.8725
ltibia 48.3075
lfoot -14.9823 8.10902
ltoes -9.04194
409
root 0.0755815 17.0927 6.1139 9.75784 -0.321908 -9.52869
lowerback -9.25077 2.14207 8.93009
upperback -3.80037 2.02352 2.46481
thorax 1.42212 0.958292 -2.22813
lowerneck -16.0456 -3.54992 -7.04005
upperneck 25.9975 -4.56773 5.30636
head 11.3984 -2.1104 2.47908
rclavicle -2.3629e-014 2.49972e-014
rhumerus -33.2189 5.51668 -85.26
rradius 35.7626
rwrist 1.18914
rhand -23.9196 -50.093
rfingers 7.12502
rthumb 2.55502 -80.0575
lclavicle -2.3629e-014 2.49972e-014
lhumerus -46.4027 -5.09854 85.8978
lradius 31.7772
lwrist 10.3099
lhand -33.162 -19.7524
lfingers 7.12502
lthumb -6.37057 10.1318
rfemur -14.201 6.6086 36.5434
rtibia 28.5618
rfoot -18.6734 -8.46469
rtoes 6.91208
lfemur -43.3905 0.35513 -10.7648
ltibia 46.1779
lfoot -13.9507 8.63716
ltoes -13.285
410
root 0.0809848 17.104 6.23763 9.91526 -0.324656 -9.4898
lowerback -9.16564 2.13211 9.09631
upperback -4.00299 2.02182 2.41611
thorax 1.1679 0.941001 -2.37727
lowerneck -15.6254 -3.59998 -7.22231
upperneck 25.7322 -4.55694 5.13252
head 11.2147 -2.15105 2.44741
rclavicle 4.57515e-015 2.11209e-014
rhumerus -33.341 6.0361 -85.562
rradius 35.9658
rwrist 0.887862
rhand -24.3707 -49.7437
rfingers 7.12502
rthumb 2.11933 -79.7129
lclavicle 4.57515e-015 2.11209e-014
lhumerus -46.9813 -4.70573 85.7279
lradius 32.0928
lwrist 10.1237
lhand -33.297 -19.2781
lfingers 7.12502
lthumb -6.50092 10.6021
rfemur -13.453 6.53895 36.4916
rtibia 27.7955
rfoot -18.603 -8.48893
rtoes 6.93933
lfemur -43.5353 -0.0386885 -10.7244
ltibia 44.0371
lfoot -13.5857 8.59836
ltoes -12.1611
411
root 0.0833391 17.1165 6.35507 10.2098 -0.458094 -9.5073
lowerback -9.26394 2.18853 9.2187
upperback -4.18513 2.08758 2.39122
thorax 1.04147 0.962483 -2.46384
lowerneck -15.2073 -3.48513 -7.23012
upperneck 25.5214 -4.4273 5.1858
head 11.0439 -2.09217 2.48855
rclavicle -1.91074e-014 -1.85367e-014
rhumerus -33.3838 6.34166 -85.7706
rradius 36.1736
rwrist 0.767692
rhand -24.8935 -48.7872
rfingers 7.12502
rthumb 1.61442 -78.7609
lclavicle -1.91074e-014 -1.85367e-014
lhumerus -47.3967 -4.26996 85.5031
lradius 32.2476
lwrist 9.93724
lhand -32.9848 -20.0579
lfingers 7.12502
lthumb -6.19953 9.83137
rfemur -12.8948 6.48348 36.4771
rtibia 27.1196
rfoot -18.4795 -8.44626
rtoes 6.49484
lfemur -43.8442 -0.288077 -10.581
ltibia 41.9035
lfoot -12.0586 8.91225
ltoes -17.2868
412
root 0.0784714 17.12 6.46265 10.4112 -0.81391 -9.51693
lowerback -9.1856 2.33377 9.17764
upperback -4.23893 2.29678 2.36729
thorax 0.964605 1.06242 -2.44659
lowerneck -15.3439 -3.40038 -7.1396
upperneck 25.6674 -4.40089 5.4474
head 11.1267 -2.0377 2.57431
rclavicle -9.31803e-015 1.2101e-014
rhumerus -33.1845 6.41313 -85.8654
rradius 36.4194
rwrist 0.821607
rhand -24.9895 -48.3563
rfingers 7.12502
rthumb 1.52167 -78.3306
lclavicle -9.31803e-015 1.2101e-014
lhumerus -47.4586 -4.03637 85.3383
lradius 32.2884
lwrist 9.89259
lhand -32.5355 -21.7306
lfingers 7.12502
lthumb -5.76579 8.171
rfemur -12.2337 6.81704 36.4725
rtibia 26.3467
rfoot -18.3196 -8.46899
rtoes 6.10312
lfemur -43.9413 -0.35273 -10.4136
ltibia 39.764
lfoot -10.7423 8.77607
ltoes -18.9791
413
root 0.0766638 17.1216 6.57314 10.4845 -1.12225 -9.44316
lowerback -8.94209 2.44849 9.12539
upperback -4.29001 2.48722 2.28839
thorax 0.799574 1.14966 -2.4889
lowerneck -15.4693 -3.39776 -7.1757
upperneck 25.7265 -4.46115 5.73049
head 11.1858 -2.03219 2.67611
rclavicle 7.12519e-015 -2.50966e-014
rhumerus -33.0265 6.44027 -86.0255
rradius 36.6164
rwrist 0.976845
rhand -24.883 -48.3973
rfingers 7.12502
rthumb 1.62453 -78.3709
lclavicle 7.12519e-015 -2.50966e-014
lhumerus -47.5953 -3.94595 85.2088
lradius 32.4485
lwrist 9.95597
lhand -32.4263 -22.0315
lfingers 7.12502
lthumb -5.66034 7.87287
rfemur -11.4646 7.10829 36.3828
rtibia 25.5954
rfoot -18.1541 -8.42915
rtoes 6.04128
lfemur -43.7664 -0.500766 -10.326
ltibia 37.6192
lfoot -9.56593 8.44115
ltoes -18.761
414
root 0.0709563 17.1551 6.69075 10.5982 -1.28988 -9.33521
lowerback -8.91358 2.51532 9.03315
upperback -4.27248 2.5859 2.24012
thorax 0.812358 1.20049 -2.4783
lowerneck -15.6145 -3.37908 -7.29526
upperneck 25.6115 -4.42107 5.85839
head 11.1743 -2.0073 2.74657
rclavicle -1.04486e-014 -8.44835e-015
rhumerus -32.866 6.41135 -86.1242
rradius 36.9249
rwrist 1.16057
rhand -24.857 -48.3403
rfingers 7.12502
rthumb 1.64967 -78.3136
lclavicle -1.04486e-014 -8.44835e-015
lhumerus -47.6174 -3.87826 85.1743
lradius 32.4856
lwrist 10.1052
lhand -32.4895 -22.1417
lfingers 7.12502
lthumb -5.7213 7.76102
rfemur -10.7256 7.24546 36.2756
rtibia 24.8492
rfoot -17.9328 -8.436
rtoes 5.29421
lfemur -44.0662 -0.796021 -10.1859
ltibia 35.4959
lfoot -8.0642 7.94336
ltoes -17.756
415
root 0.0674069 17.1668 6.81574 10.8043 -1.63554 -9.11174
lowerback -9.04035 2.60428 8.80086
upperback -4.2614 2.70734 2.17553
thorax 0.901994 1.26666 -2.39884
lowerneck -15.698 -3.33966 -7.34099
upperneck 25.4816 -4.34194 5.86679
head 11.1371 -1.97304 2.76618
rclavicle 3.8808e-014 3.44146e-014
rhumerus -32.787 6.47608 -86.2554
rradius 37.3406
rwrist 1.20369
rhand -24.7848 -48.0275
rfingers 7.12502
rthumb 1.71937 -78.0003
lclavicle 3.8808e-014 3.44146e-014
lhumerus -47.6271 -3.67136 85.1082
lradius 32.4201
lwrist 10.3084
lhand -32.5562 -23.2501
lfingers 7.12502
lthumb -5.78571 6.65091
rfemur -10.0326 7.36842 35.9966
rtibia 24.1033
rfoot -17.9164 -8.34883
rtoes 4.00904
lfemur -44.0883 -1.08884 -10.1023
ltibia 33.4637
lfoot -7.03231 7.74548
ltoes -17.5048
416
root 0.0753709 17.1659 6.94427 11.0016 -1.97275 -8.91963
lowerback -9.09436 2.67106 8.74422
upperback -4.36132 2.80188 2.07568
thorax 0.839606 1.30854 -2.4612
lowerneck -15.6134 -3.29382 -7.30288
upperneck 25.4274 -4.29372 5.87539
head 11.0952 -1.94786 2.76956
rclavicle -2.72351e-014 2.46245e-014
rhumerus -32.8509 6.66428 -86.5229
rradius 37.641
rwrist 1.27895
rhand -24.621 -48.081
rfingers 7.12502
rthumb 1.87756 -78.0525
lclavicle -2.72351e-014 2.46245e-014
lhumerus -47.8413 -3.3381 84.9289
lradius 32.4907
lwrist 10.5045
lhand -32.3598 -23.2347
lfingers 7.12502
lthumb -5.5961 6.67137
rfemur -9.29604 7.22928 35.689
rtibia 23.2789
rfoot -18.0256 -7.96157
rtoes 3.40696
lfemur -43.8143 -1.44418 -9.98785
ltibia 31.5438
lfoot -6.38593 7.62373
ltoes -17.6743
417
root 0.0820213 17.166 7.06275 11.1606 -2.2098 -8.88628
lowerback -9.09452 2.73503 8.80895
upperback -4.3724 2.88204 2.04509
thorax 0.840596 1.34698 -2.52018
lowerneck -15.6823 -3.26882 -7.29864
upperneck 25.3403 -4.25117 5.87804
head 11.0727 -1.92646 2.77398
rclavicle 8.19987e-015 -5.29264e-015
rhumerus -32.5772 7.04018 -86.7373
rradius 37.71
rwrist 1.31597
rhand -24.1524 -49.0105
rfingers 7.12502
rthumb 2.33021 -78.9775
lclavicle 8.19987e-015 -5.29264e-015
lhumerus -47.8349 -3.07928 84.8567
lradius 32.5306
lwrist 10.8141
lhand -32.2131 -23.1809
lfingers 7.12502
lthumb -5.45449 6.72892
rfemur -8.61988 7.08596 35.5905
rtibia 22.5168
rfoot -17.9381 -7.67239
rtoes 3.35433
lfemur -43.6293 -1.78531 -9.70771
ltibia 29.8238
lfoot -5.82961 7.47134
ltoes -18.377
418
root 0.0825136 17.1719 7.17622 11.3141 -2.53068 -8.81169
lowerback -9.06104 2.8333 8.73071
upperback -4.31518 3.01859 2.02578
thorax 0.894982 1.41918 -2.48187
lowerneck -15.8003 -3.35019 -7.41089
upperneck 25.1636 -4.28616 5.76003
head 11.0333 -1.96505 2.74051
rclavicle -1.13028e-014 3.73964e-014
rhumerus -32.1538 7.55754 -86.9148
rradius 37.6953
rwrist 0.975328
rhand -23.7931 -49.6235
rfingers 7.12502
rthumb 2.67718 -79.5864
lclavicle -1.13028e-014 3.73964e-014
lhumerus -47.7493 -2.92567 84.8789
lradius 32.5931
lwrist 11.18
lhand -32.702 -24.9902
lfingers 7.12502
lthumb -5.92647 4.90692
rfemur -7.86372 7.11474 35.4635
rtibia 21.6059
rfoot -17.7074 -7.51786
rtoes 3.0434
lfemur -43.6161 -2.07032 -9.44531
ltibia 28.3431
lfoot -5.8315 7.55805
ltoes -17.185
419
root 0.0860475 17.1812 7.30794 11.4795 -2.77968 -8.91392
lowerback -9.20947 2.97767 8.96357
upperback -4.31697 3.17339 1.97837
thorax 1.00375 1.49673 -2.63545
lowerneck -15.6855 -3.51197 -7.50969
upperneck 24.9423 -4.43473 5.56706
head 10.9387 -2.06669 2.66194
rclavicle 4.95253e-015 -1.45858e-014
rhumerus -32.0686 7.85341 -87.1876
rradius 37.7248
rwrist 0.614124
rhand -24.2865 -49.1602
rfingers 7.12502
rthumb 2.20065 -79.1286
lclavicle 4.95253e-015 -1.45858e-014
lhumerus -47.8751 -2.70154 84.6995
lradius 32.7822
lwrist 11.0807
lhand -33.1223 -25.4797
lfingers 7.12502
lthumb -6.33229 4.40569
rfemur -6.95572 6.98389 35.4983
rtibia 20.5539
rfoot -17.522 -7.2363
rtoes 2.31694
lfemur -43.6298 -2.39663 -8.9892
ltibia 27.0406
lfoot -6.91359 7.80554
ltoes -11.3182
420
root 0.0939157 17.1867 7.45325 11.6014 -3.0132 -9.18356
lowerback -9.47507 3.15889 9.45386
upperback -4.35272 3.34167 1.92838
thorax 1.15563 1.57877 -2.92637
lowerneck -15.5764 -3.62774 -7.53482
upperneck 24.9735 -4.64093 5.70258
head 10.9489 -2.14884 2.68731
rclavicle -2.39877e-014 -1.81888e-014
rhumerus -32.2266 7.95687 -87.5176
rradius 37.8282
rwrist 0.599668
rhand -24.7448 -48.8992
rfingers 7.12502
rthumb 1.75805 -78.8717
lclavicle -2.39877e-014 -1.81888e-014
lhumerus -48.0603 -2.41771 84.3898
lradius 32.8145
lwrist 10.7045
lhand -33.2306 -24.5887
lfingers 7.12502
lthumb -6.43683 5.29345
rfemur -5.92689 6.75022 35.6839
rtibia 19.5066
rfoot -17.3623 -6.81799
rtoes 1.70484
lfemur -43.5448 -2.75696 -8.33864
ltibia 25.8724
lfoot -6.65436 7.91295
ltoes -12.8201
421
root 0.100851 17.1898 7.58495 11.6766 -3.33334 -9.14676
lowerback -9.37919 3.25642 9.54174
upperback -4.45498 3.48296 1.85244
thorax 1.02092 1.63908 -3.04473
lowerneck -15.8095 -3.59313 -7.52891
upperneck 25.3944 -4.68232 6.01068
head 11.1629 -2.12707 2.79856
rclavicle 1.21492e-014 7.70291e-015
rhumerus -32.4105 7.99466 -87.7871
rradius 37.992
rwrist 0.731351
rhand -24.6236 -49.0558
rfingers 7.12502
rthumb 1.87509 -79.0273
lclavicle 1.21492e-014 7.70291e-015
lhumerus -48.2755 -2.10778 84.1463
lradius 32.7624
lwrist 10.6329
lhand -33.1258 -25.2867
lfingers 7.12502
lthumb -6.33569 4.59857
rfemur -4.90938 6.81533 35.5548
rtibia 18.4671
rfoot -17.1035 -6.66244
rtoes 0.569773
lfemur -43.4768 -3.14368 -7.99717
ltibia 24.8874
lfoot -6.74392 8.31251
ltoes -11.8664
422
root 0.10593 17.1916 7.70558 11.8188 -3.61047 -8.96844
lowerback -9.13429 3.28841 9.41777
upperback -4.55741 3.57376 1.79368
thorax 0.78746 1.67331 -3.0426
lowerneck -16.0456 -3.46191 -7.36662
upperneck 25.4766 -4.44897 5.73706
head 11.2108 -2.03485 2.70379
rclavicle 1.75505e-014 -1.06847e-014
rhumerus -32.4396 7.9791 -87.9498
rradius 38.0931
rwrist 0.841238
rhand -24.7667 -48.75
rfingers 7.12502
rthumb 1.73693 -78.7226
lclavicle 1.75505e-014 -1.06847e-014
lhumerus -48.3982 -1.80059 84.0134
lradius 32.8048
lwrist 10.8196
lhand -32.95 -26.389
lfingers 7.12502
lthumb -6.16599 3.50123
rfemur -4.03399 6.97778 35.2901
rtibia 17.4472
rfoot -16.7165 -6.66016
rtoes -0.970113
lfemur -43.5659 -3.51141 -7.84034
ltibia 24.0948
lfoot -6.71675 8.87986
ltoes -11.2785
